<svg width="36" height="35" viewBox="0 0 36 35" fill="none" xmlns="http://www.w3.org/2000/svg">
<mask id="mask0_5_5344" style="mask-type:luminance" maskUnits="userSpaceOnUse" x="1" y="0" width="34" height="35">
<path d="M35 0.0898438H1V34.0898H35V0.0898438Z" fill="white"/>
</mask>
<g mask="url(#mask0_5_5344)">
<path d="M30.1539 13.0489H27.4432C26.5374 11.7189 25.3322 10.6071 23.9281 9.81421C22.3558 8.92628 20.5704 8.45703 18.765 8.45703H18C17.4451 8.45703 16.9953 8.90683 16.9953 9.46168V13.0489H5.8461C3.39815 13.0489 1.36964 14.8738 1.04617 17.2343C1.04254 17.2571 1.03943 17.2799 1.03735 17.3033C1.01375 17.4976 1 17.6947 1 17.8952V21.7367C1 22.2915 1.4498 22.7413 2.00465 22.7413H5.51978C5.96672 24.4679 7.5379 25.7465 9.40221 25.7465C11.2665 25.7465 12.8377 24.4679 13.2846 22.7413H22.7154C23.1626 24.4679 24.7335 25.7465 26.5978 25.7465C28.4621 25.7465 30.033 24.4679 30.4802 22.7413H33.9953C34.5502 22.7413 35 22.2915 35 21.7367V17.8952C35 15.2229 32.826 13.0489 30.1539 13.0489ZM19.0047 10.4699C21.2251 10.5335 23.3312 11.4805 24.8588 13.0489H19.0047V10.4699ZM3.00931 18.3938H4.56104C5.11589 18.3938 5.56569 17.944 5.56569 17.3891C5.56569 16.8343 5.11589 16.3845 4.56104 16.3845H3.44691C3.94989 15.5884 4.83704 15.0584 5.8461 15.0584H16.9953V20.732H13.2846C12.8374 19.0055 11.2665 17.7266 9.40221 17.7266C7.5379 17.7266 5.96698 19.0055 5.51978 20.732H3.00931V18.3938ZM11.4027 21.7367C11.4027 22.8399 10.5054 23.7372 9.40221 23.7372C8.29898 23.7372 7.40172 22.8399 7.40172 21.7367C7.40172 20.6335 8.29898 19.7362 9.40221 19.7362C10.5054 19.7362 11.4027 20.6335 11.4027 21.7367ZM28.5983 21.7367C28.5983 22.8399 27.701 23.7372 26.5978 23.7372C25.4946 23.7372 24.5973 22.8399 24.5973 21.7367C24.5973 20.6335 25.4946 19.7362 26.5978 19.7362C27.701 19.7362 28.5983 20.6335 28.5983 21.7367ZM30.4802 20.732C30.0333 19.0055 28.4621 17.7266 26.5978 17.7266C24.7335 17.7266 23.1623 19.0055 22.7154 20.732H19.0047V15.0584H30.1539C31.1451 15.0584 32.019 15.57 32.5264 16.3425H30.9715C30.4167 16.3425 29.9669 16.7923 29.9669 17.3471C29.9669 17.902 30.4167 18.352 30.9715 18.352H32.9907V20.732H30.4802Z" fill="#050B20"/>
</g>
</svg>
