<svg width="34" height="35" viewBox="0 0 34 35" fill="none" xmlns="http://www.w3.org/2000/svg">
<path d="M30.5394 15.8361L26.3033 14.1424L23.8414 8.39753C23.3378 7.22346 22.1882 6.46484 20.9111 6.46484H11.1658C9.75056 6.46484 8.48938 7.41578 8.1005 8.77684L6.63637 13.9023H4.25C3.07806 13.9023 2.125 14.8554 2.125 16.0273V22.4023C2.125 23.5742 3.07806 24.5273 4.25 24.5273H6.52588C7.00081 26.3548 8.65088 27.7148 10.625 27.7148C12.5991 27.7148 14.2492 26.3548 14.7241 24.5273H19.2759C19.7508 26.3548 21.4009 27.7148 23.375 27.7148C25.3491 27.7148 26.9992 26.3548 27.4741 24.5273H29.75C30.9219 24.5273 31.875 23.5742 31.875 22.4023V17.8091C31.875 16.9347 31.3512 16.1601 30.5394 15.8361ZM10.625 25.5898C9.45306 25.5898 8.5 24.6367 8.5 23.4648C8.5 22.2929 9.45306 21.3398 10.625 21.3398C11.7969 21.3398 12.75 22.2929 12.75 23.4648C12.75 24.6367 11.7969 25.5898 10.625 25.5898ZM23.375 25.5898C22.2031 25.5898 21.25 24.6367 21.25 23.4648C21.25 22.2929 22.2031 21.3398 23.375 21.3398C24.5469 21.3398 25.5 22.2929 25.5 23.4648C25.5 24.6367 24.5469 25.5898 23.375 25.5898ZM29.75 22.4023H27.4741C26.9992 20.5748 25.3491 19.2148 23.375 19.2148C21.4009 19.2148 19.7508 20.5748 19.2759 22.4023H14.7241C14.2492 20.5748 12.5991 19.2148 10.625 19.2148C8.65088 19.2148 7.00081 20.5748 6.52588 22.4023H4.25V16.0273H7.4375C7.91138 16.0273 8.32894 15.7128 8.45856 15.257L10.1426 9.36121C10.2733 8.90646 10.693 8.58984 11.1658 8.58984H20.9111C21.3361 8.58984 21.7196 8.84271 21.8875 9.23371L24.5225 15.3834C24.633 15.6427 24.8423 15.8467 25.1037 15.9519L29.75 17.8091V22.4023Z" fill="#050B20"/>
<path d="M15.3481 19.0363C14.8604 18.7112 14.7287 18.0514 15.0538 17.5626L16.077 16.0273H14.8753C14.4833 16.0273 14.1231 15.8116 13.9382 15.4663C13.7533 15.121 13.7735 14.7013 13.9913 14.3762L16.1163 11.1887C16.4414 10.7 17.1013 10.5682 17.59 10.8944C18.0777 11.2195 18.2094 11.8793 17.8843 12.3681L16.8611 13.9023H18.0628C18.4549 13.9023 18.8151 14.118 18.9999 14.4633C19.1848 14.8086 19.1646 15.2283 18.9468 15.5535L16.8218 18.741C16.4956 19.2308 15.8348 19.3615 15.3481 19.0363Z" fill="#050B20"/>
</svg>
