<svg width="36" height="35" viewBox="0 0 36 35" fill="none" xmlns="http://www.w3.org/2000/svg">
<mask id="mask0_5_5332" style="mask-type:luminance" maskUnits="userSpaceOnUse" x="1" y="0" width="34" height="35">
<path d="M35 0.0898438H1V34.0898H35V0.0898438Z" fill="white"/>
</mask>
<g mask="url(#mask0_5_5332)">
<path d="M31.759 15.6771L25.8898 14.6984C25.5466 14.141 24.8644 13.1327 23.8725 12.1225C21.8927 10.1062 19.6133 9.04053 17.2806 9.04053H7.7225C6.16993 9.04053 4.73044 9.87997 3.96577 11.2312L1.3319 15.886C1.32765 15.8935 1.32446 15.9013 1.32041 15.9089C1.11668 16.2735 1 16.6931 1 17.1397V22.0446C1 22.5947 1.44598 23.0406 1.99609 23.0406H5.18632C5.65455 24.2658 6.848 25.1392 8.24339 25.1392C9.63879 25.1392 10.8322 24.2658 11.3005 23.0406H23.672C24.1402 24.2658 25.3336 25.1392 26.729 25.1392C28.1244 25.1392 29.3178 24.2658 29.786 23.0406H34.0039C34.554 23.0406 35 22.5947 35 22.0446V19.4076C35 17.539 33.6077 15.938 31.759 15.6771ZM23.3976 14.608H16.222V11.0327H17.2806C20.104 11.0327 22.2363 13.12 23.3976 14.608ZM9.57371 11.0327H14.2299V14.608H9.57371V11.0327ZM5.69964 12.2123C6.08811 11.5258 6.80012 11.0851 7.58152 11.0375V14.608H4.34402L5.69964 12.2123ZM8.24339 23.147C7.53929 23.147 6.96647 22.5838 6.96647 21.8914C6.96647 21.1991 7.53929 20.6358 8.24339 20.6358C8.9475 20.6358 9.52032 21.1991 9.52032 21.8914C9.52032 22.5838 8.9475 23.147 8.24339 23.147ZM26.729 23.147C26.0248 23.147 25.452 22.5838 25.452 21.8914C25.452 21.1991 26.0249 20.6358 26.729 20.6358C27.4331 20.6358 28.0059 21.1991 28.0059 21.8914C28.0059 22.5838 27.4331 23.147 26.729 23.147ZM29.8857 21.0484C29.5111 19.6651 28.2381 18.6436 26.729 18.6436C25.2198 18.6436 23.9469 19.6651 23.5721 21.0484H11.4001C11.0255 19.6651 9.75254 18.6436 8.24339 18.6436C6.73425 18.6436 5.4613 19.6651 5.08657 21.0484H2.99219V17.1397C2.99219 16.8422 3.23417 16.6002 3.53167 16.6002H25.183L31.4445 17.6444C31.4541 17.646 31.4637 17.6475 31.4734 17.6488C31.6428 17.672 31.804 17.7193 31.9541 17.7865C31.5374 17.9057 31.232 18.2886 31.232 18.7436C31.232 19.2937 31.678 19.7397 32.2281 19.7397H33.0078V21.0485L29.8857 21.0484Z" fill="#050B20"/>
</g>
</svg>
