<svg width="36" height="35" viewBox="0 0 36 35" fill="none" xmlns="http://www.w3.org/2000/svg">
<mask id="mask0_5_5391" style="mask-type:luminance" maskUnits="userSpaceOnUse" x="1" y="0" width="34" height="35">
<path d="M35 0.0898438H1V34.0898H35V0.0898438Z" fill="white"/>
</mask>
<g mask="url(#mask0_5_5391)">
<path d="M32.7415 14.2457L30.7088 8.20805C30.1364 6.50872 28.5473 5.36719 26.7543 5.36719H23.2242C22.3084 5.36719 21.564 6.11227 21.564 7.02735V14.2443H1.99609C1.44625 14.2443 1 14.6906 1 15.2404V22.8439C1 24.1256 2.04258 25.1682 3.32422 25.1682H5.0727C5.52957 27.25 7.38895 28.8125 9.60559 28.8125C11.8222 28.8125 13.6809 27.25 14.1378 25.1682H23.8491C24.3059 27.25 26.1646 28.8125 28.3813 28.8125C30.6026 28.8125 32.4646 27.2434 32.9168 25.1555C34.0856 25.0347 35 24.0439 35 22.8439V16.5685C35 15.3088 33.9926 14.2802 32.7415 14.2457ZM26.7543 7.35938C27.6913 7.35938 28.5221 7.95571 28.8202 8.84356L30.6391 14.2443L23.5562 14.2444V7.35938H26.7543ZM2.99219 22.8439V16.2365H21.564V23.176H14.1378C13.6809 21.0948 11.8222 19.5323 9.60559 19.5323C7.38895 19.5323 5.52957 21.0948 5.0727 23.176H3.32422C3.14094 23.176 2.99219 23.0272 2.99219 22.8439ZM9.60559 26.8203C7.72848 26.8203 6.44445 24.9089 7.15188 23.176C7.54633 22.2084 8.49727 21.5244 9.60559 21.5244C10.7139 21.5244 11.6642 22.2084 12.0586 23.176C12.7642 24.9045 11.4869 26.8203 9.60559 26.8203ZM23.5562 16.2366C24.3715 16.2366 31.6649 16.2365 32.6758 16.2365C32.8591 16.2365 33.0078 16.3853 33.0078 16.5685C32.964 23.0319 33.1103 22.9059 32.8949 23.0923C32.4068 21.053 30.568 19.5323 28.3813 19.5323C26.1646 19.5323 24.3059 21.0948 23.8491 23.176H23.5562V16.2366ZM25.9282 25.1682C25.2208 23.435 26.5055 21.5244 28.3813 21.5244C30.2492 21.5244 31.5465 23.4251 30.835 25.1682C29.9394 27.3665 26.8241 27.3672 25.9282 25.1682Z" fill="#050B20"/>
</g>
</svg>
